<?xml version="1.0" encoding="UTF-8"?>
<svg width="1024" height="1024" version="1.1" viewBox="0 0 270.93 270.93" xml:space="preserve" xmlns="http://www.w3.org/2000/svg"><g transform="translate(-50.828 187.79)"><g transform="matrix(1.2364 0 0 1.2364 -96.157 62.525)"><path d="m240.98-182.7c-10.997-.08-20.23 1.9654-25.059 6.0551l-69.415 58.784c-8.4114 7.1233-11.95 16.875-11.316 22.085l2.011 17.232c.0235.1868.0551.38281.0937.58521l1.2127 10.757h.0118c2.3191 11.028 10.875 23.048 26.122 37.085 6.5952 5.1033 13.208 9.5281 20.789 13.967 36.9 24.946 81.92 9.3105 94.511-6.4703 12.592-15.781 37.746-97.203 37.746-97.203.7818-1.8686 2.5567-13.994 2.5567-13.994.41322-1.0143 1.2022-7.1641 1.5066-9.7574 0 0 .11497-3.285-.74873-6.2205-1.5075-6.1995-14.672-18.15-37.778-24.687l-14.627-4.1387c-9.4446-2.672-19.064-4.0178-27.617-4.0799z" fill="#bd1550"/><path d="m240.98-182.7c-10.997-.08-20.23 1.9654-25.059 6.0551l-69.415 58.784c-8.4114 7.1233-11.95 16.875-11.316 22.085l2.011 17.232c.78373 6.2122 9.8956 21.244 26.556 32.055l21.707 14.421c38.437 24.942 85.315 20.87 96.711-7.0941l38.071-94.655c.41321-1.0143 1.2022-7.1641 1.5066-9.7574 0 0 .11496-3.285-.74872-6.2205-1.5075-6.1995-14.672-18.15-37.778-24.687l-14.627-4.1387c-9.4446-2.672-19.064-4.0178-27.617-4.0799zm67.364 30.126c1.3094.23113 4.7817 2.7092 6.5162 5.7785-2.2656-1.0516-5.5283-3.0156-7.143-5.4732.21041-.14412.4559-.27483.62678-.30526zm-45.66 111.2c1.1799.01345 2.4702.14474 3.5443.34084-1.0019.73144-2.1908 1.5534-3.3652 2.2324-4.8186 2.786-10.26 3.7488-13.828 3.6455.70664-.84653 1.586-1.7569 2.522-2.4852 3.3904-2.6385 7.0518-3.6359 10.437-3.7281.232-.0064.46163-.0081.68994-.0055z" fill="#e97f02"/><path d="m148.23-116.93c-17.426 14.922-12.598 41.656 16.493 60.109l20.84 13.22c37.119 23.546 82.48 20.45 93.755-5.9063 0 0 40.255-94.095 40.255-94.095 4.3582-10.187-13.271-23.542-37.171-30.337l-14.211-4.0405c-20.878-5.9361-42.629-5.17-50.839 1.8599l-69.123 59.19m98.685 74.68c1.1279-1.9887 2.6698-4.8214 6.2414-6.7787 6.9991-3.836 15.276-2.2073 18.937-.7615 2.0598 1.2299-2.1699 6.7791-9.2829 10.892-7.3165 4.2303-15.793 4.2697-17.529 2.7305-.314-1.0422.49025-4.0658 1.6336-6.0821m60.488-114.44c.35166-.75774 1.261-1.5838 1.8203-1.6836 1.3636.24073 5.0452 2.8638 6.6973 6.1122 1.7144 3.3702 1.5273 6.3081-.003 5.8883-2.4157-.94671-7.1289-3.4996-8.6721-6.8333-.75065-1.6216-.19677-2.7193.1591-3.4836" fill="#f8ca00"/><path d="m151.14-116.88c-.0419.0293-.0712.0624-.10467.0934-1.3996 2.7484 1.1224 6.2264.76447 9.3367-.53797 5.0198-3.6616 6.5771-10.456 12.856.70334 11.973 9.1075 25.208 25.291 35.338l19.746 12.359c16.152 10.109 34.817 14.88 51.468 14.047 3.1814-6.5211 7.0381-17.393 13.769-20.551 6.6123-3.3318 17.519.62439 25.373-3.6816 0 0 38.301-85.498 38.301-85.498-2.0573-4.1993-9.1498-7.1313-10.687-10.27-1.5264-2.8578 1.3125-6.0919 2.728-8.2031-6.3636-4.8469-15.549-9.2421-26.271-12.31l-13.591-3.8881c-11.545-3.3027-23.171-4.4045-32.421-3.5274-2.8971 2.6504-3.1889 3.7947-7.4299 4.5816-2.7447.51876-6.912.13983-9.1561.98247-.0419.0251-.0586.0473-.0837.0716l-67.239 58.263" fill="#490a3d"/><path d="m244.64-175.97c2.4843-2.5022 10.26-2.7847 17.623-.64888 6.6207 1.9206 11.102 5.2803 10.485 8.0101.87082.90531 2.7246 1.5911 4.6086 1.8145.52584-.008 1.0739.008 1.6382.0469l.65269.0486c1.7517.16453 3.5988.52734 5.376 1.0566 5.8951 1.7571 9.7108 4.9299 8.3769 7.1006-1.3678 2.2261-7.556 2.4811-13.665.55695-3.4309-1.0807-6.1886-2.669-7.4572-4.2662 0 0-.12978-.15742-.12978-.15742-.30562-.41886-.49779-.82843-.57607-1.2192-.96083-.87458-2.9394-1.614-4.8342-1.7733-.70963.0787-1.4628.12392-2.2511.13397 0 0-.0419.00058-.0419.00058-3.3878.0477-7.2411-.54409-10.772-1.6486-7.6853-2.41-11.607-6.4704-9.0409-9.055v.00012m-83.98 84.576c-6.1283 6.1714-3.4929 16.129 6.593 22.201 9.241 5.5547 21.233 5.7203 27.9.3747 2.7874-.35293 5.6464.8732 7.4228 2.892.33493.68124.7381 1.3578 1.2078 2.0224 0 0 .55807.76351.55807.76351 1.5951 2.009 3.752 3.8237 6.2719 5.2636 8.4385 4.8183 18.354 4.2084 21.747-1.3143 3.2614-5.3083-.92984-12.958-9.0032-17.143-4.5006-2.3276-9.5764-3.2332-13.777-2.4736 0 0-.422.07201-.422.07201-1.1036.23445-2.123.58407-3.0353 1.0411-2.566.13104-5.4815-1.0959-7.0054-3.0247-.24701-.90305-.59826-1.8019-1.045-2.6867v-.04186c-1.8752-3.7346-5.4028-7.0708-9.8711-9.4105-9.6459-5.036-21.692-4.4095-27.522 1.462v-.000125" fill="#bd1550"/><path d="m162.61-115.67 61.351-56.035c.12141-.11137.45801-.12392.75443-.0293l70.579 22.746c.38935.12518.63468.3433.55178.48912 0 0-43.974 77.458-43.974 77.458-.16747.29474-.71256.32614-1.2216.07117l-87.809-44.02c-.35167-.17541-.45257-.47949-.23026-.68166" fill="#e97f02"/><path d="m181.33-95.859c-.3073.014-.53538.08589-.6587.22232l-3.5544 3.8034-.00069.000896.00069.0046.24437 3.3762 1.1355 4.0092 2.1938 1.2118-.49794.5604.00069.0028.17271 3.3762 1.8604 4.2774 6.644 3.7795c.97669.55564 2.7632-.24483 3.9899-1.7804l.66605-.83325c.62086-.77724.96305-1.582 1.0234-2.2563h.0128l.15343-3.3036-.006-.0019c.0825-.66939-.11529-1.2169-.61277-1.4837l-6.7147-3.6004v-.000964l-.0698.000964 2.4281-2.8287c.1122-.14109.20833-.37603.22508-.49426l.0413-3.2852h-.006c.006-.66092-1.3151-1.8362-3.2522-2.8369l-1.2136-.62747c-1.65-.85224-3.2839-1.3346-4.2058-1.2926zm-14.062.7423c-.94147-.04604-2.2989.60426-3.3698 1.6803l-.7276.73128c-.92019.9249-1.3876 1.917-1.3036 2.6072h-.00097l.00097.0028.63481 3.5719c.0293.14486.16551.38289.41984.52733l5.706 3.2467-3.2062 3.4322c-.12433.12901-.15727.30223-.11759.50436-1e-5-2.4e-5-.005 2.5e-5-.005 0 .00042-.02093.50436 3.198.50436 3.198h.0128c-.0377.73604 1.199 2.0355 3.1061 3.1649l1.2292.72944c2.265 1.3412 4.5536 1.9105 5.1079 1.265l3.7602-4.3812-.20578-3.3771v-.0037h-.00069l-1.231-4.3032-2.1286-1.175.55949-.62012-.27746-3.378.00069-.000964-1.7336-3.9743-6.158-3.3018c-.16425-.08807-.35968-.13545-.57693-.14607zm91.734-83.069c-.86947.0311-1.5647.21887-1.8815.55488-.10041.10657-.15195.22257-.16811.34359l-.003-.00069-.48047 1.7593.003.002c-.19928.66215.85945 1.5288 2.6201 2.0533 2.0117.59906 4.1426.51897 4.7404-.17731.0666-.0774.10384-.16072.1277-.24529l.008.003.72485-1.8695-.003-.00069c.17239-.6694-.95734-1.5283-2.7598-2.0395-1.0158-.28812-2.0593-.41333-2.9288-.38217zm-10.455.3739c-.87313.0313-1.5821.22015-1.9219.55765-.12061.11985-.18376.25103-.20027.3886l-.003-.00069-.19292 1.8282.0165.005c-.0996.6478.87438 1.4491 2.508 1.9467 1.976.60169 4.1172.52064 4.7616-.17914.054-.0586.0778-.12329.10749-.1865l.0174.005.0119-.0506c.0125-.0377.021-.0769.0294-.11668l.41984-1.7997-.008-.002c.16694-.66672-.8981-1.507-2.6366-2.011-.99833-.28937-2.0354-.41532-2.9086-.38402zm16.137 4.6918c-.89694.0331-1.6073.23341-1.9219.59164-.0682.0776-.11103.15996-.1378.24529l-.006-.00069-.66605 1.8806h.002c-.18001.70587.94732 1.6269 2.7846 2.1865 2.1007.63971 4.2995.55341 4.8911-.19017.0251-.0293.0251-.0622.0432-.0928l.0174.003.90674-1.887c.006-.0122.012-.0244.0174-.0367l.0101-.0212-.003-.00069c.28722-.72612-.93149-1.7002-2.8976-2.2701-1.0602-.30728-2.1439-.44101-3.0409-.4079zm-10.785.3978c-.90077.0333-1.6259.23359-1.9651.59347-.0995.10562-.15589.21989-.18099.339l-.003-.00069-.35094 1.8502.008.002c-.14528.70009.90899 1.5875 2.6596 2.1332 2.0635.6431 4.2721.5568 4.9132-.19017.0703-.0821.11109-.16998.13872-.25999l.008.002.56683-1.8411c.008-.0223.0163-.0443.0211-.0671l.006-.0212-.003-.00069c.1263-.70871-.99947-1.5951-2.7993-2.1286-1.0414-.30868-2.118-.44299-3.0188-.40974zm25.942 4.9086c-1.9737-.0191-3.5321.37285-4.1277 1.1539-.14055.18426-.21802.38146-.24253.58797l-.003-.00069-.45384 2.4208.008.003c-.31399 1.3904 1.9661 3.2499 5.5967 4.3831 4.1154 1.2846 8.2812 1.1166 9.2319-.37207.0444-.0695.0722-.14163.10106-.21405l.008.002.0212-.0561c.003-.008.004-.0164.008-.0248l.89847-2.5724-.006-.002c.42908-1.4437-2.1034-3.387-5.9384-4.5089-1.7801-.52078-3.5664-.78445-5.1015-.79927zm-64.578 88.451c-2.949-.05273-5.5222.86638-6.8975 2.7111-.44179.5925-.73064 1.2441-.88103 1.932l-.003-.0019-.84336 3.7143c-.0251.10173-.25959.88349-.18465 1.9605.0586.84519.39725 2.1242 1.4892 3.6169 1.0919 1.4929 2.7517 3.0939 4.9674 4.3381 5.6645 3.181 12.225 2.7608 14.559-.89389.31359-.49071.52369-1.0128.59348-1.2843l1.0188-3.9899-.002-.000964c.87846-3.411-1.8347-7.6804-6.6394-10.196-2.3629-1.237-4.884-1.8653-7.1777-1.9063z" fill="#e97f02"/><path d="m177.11-91.833 1.1632 4.0102 2.7386 1.478 5.4088-.53333s3.4784-3.9594 3.4784-3.9594c.49377-.56188-.9236-1.9489-3.1561-3.1022l-1.2138-.62694c-2.1999-1.1363-4.3712-1.6161-4.8645-1.0704l-3.5547 3.804m-7.7703 8.3156 5.4774-.52684 2.7597 1.5238s1.2318 4.3068 1.2318 4.3068-3.8483 4.3805-3.8483 4.3805c-.56749.64545-2.9097.07703-5.2283-1.2641 0 0-1.2597-.72876-1.2597-.72876-2.2818-1.32-3.6464-2.8797-3.0567-3.4916 0 0 3.9241-4.1998 3.9241-4.1998m18.036-.97736s-5.6282.06699-5.6282.06699l-1.5609 1.7567s1.9042 4.2759 1.9042 4.2759l6.8017 3.7799c.99992.5556 2.8295-.2445 4.0853-1.78 0 0 .68146-.83321.68146-.83321 1.233-1.5077 1.4182-3.1362.43159-3.6653l-6.7151-3.6009m-13.379-7.1743 1.7336 3.9739-1.5819 1.711-5.5948.06573-6.224-3.4588c-.88546-.49188-.50528-1.9817.83489-3.3287 0 0 .72775-.73148.72775-.73148 1.3179-1.3243 3.0709-2.0033 3.9469-1.5336l6.1576 3.3018m77.454-85.76c2.0113.58306 3.1245 1.6168 2.4672 2.3104-.66324.6997-2.8655.78009-4.8996.17835-2.0186-.5973-3.0836-1.6344-2.3983-2.3153.6796-.675 2.834-.75203 4.8306-.17332m16.268 4.7155c2.1367.61936 3.396 1.7175 2.7926 2.4543-.60894.74349-2.8728.82857-5.0353.18881-2.1458-.63493-3.3546-1.7367-2.7198-2.4595.6292-.71646 2.8422-.79792 4.9625-.18337m-3.1762-2.7914c-.61539.69653-2.8086.77653-4.8793.17751-2.0548-.59458-3.187-1.627-2.5483-2.3048.63351-.67203 2.7788-.74873 4.8104-.17249 2.0466.58043 3.227 1.6096 2.6172 2.3001m-4.997 5.6564c-.65981.74693-2.9331.83242-5.0574.18923-2.107-.6379-3.2438-1.7448-2.5595-2.471.67832-.71976 2.9008-.80156 4.9836-.18421 2.0992.62225 3.287 1.7255 2.6332 2.4657m25.392 2.8325c4.1283 1.2077 6.7525 3.3681 5.7919 4.8315-.97703 1.4886-5.2567 1.6585-9.4857.37387-4.1661-1.2654-6.6123-3.4393-5.5355-4.8509 1.0587-1.3885 5.1603-1.5449 9.2292-.35461m-62.501 89.559c5.523 2.8912 8.2851 8.1004 6.0016 11.659-2.345 3.6546-9.0055 4.0559-14.695.87491-5.5587-3.1074-7.8897-8.3659-5.3812-11.73 2.445-3.2794 8.674-3.6312 14.075-.80387" fill="#f8ca00"/><path d="m224.7-169.04c.11848-.10969.44659-.12183.73562-.0293l69.2 22.707c-14.372 25.39-28.263 49.936-42.635 75.327-.16328.28929-.75861.36088-1.255.11053-28.801-14.436-56.346-28.246-85.147-42.682z" fill="#f8ca00" opacity=".95"/></g></g></svg>
